<svg width="24" height="24" viewBox="0 0 24 24" fill="none" xmlns="http://www.w3.org/2000/svg">
<path d="M19.51 6.07C19.31 5.87 19.31 5.56 19.51 5.36C19.71 5.16 20.02 5.16 20.22 5.36L21.63 6.77C21.83 6.97 21.83 7.28 21.63 7.48C21.43 7.68 21.12 7.68 20.92 7.48L19.51 6.07ZM13 4H14C14.55 4 15 3.55 15 3C15 2.45 14.55 2 14 2H13C12.45 2 12 2.45 12 3C12 3.55 12.45 4 13 4ZM3.5 11H7.5C7.78 11 8 10.78 8 10.5C8 10.22 7.78 10 7.5 10H3.5C3.22 10 3 10.22 3 10.5C3 10.78 3.22 11 3.5 11ZM7 13.5C7 13.22 6.78 13 6.5 13H2.5C2.22 13 2 13.22 2 13.5C2 13.78 2.22 14 2.5 14H6.5C6.78 14 7 13.78 7 13.5ZM8 16.5C8 16.22 7.78 16 7.5 16H3.5C3.22 16 3 16.22 3 16.5C3 16.78 3.22 17 3.5 17H7.5C7.78 17 8 16.78 8 16.5ZM17.05 10.65C17.15 10.56 17.2 10.43 17.2 10.3C17.2 10.17 17.15 10.04 17.05 9.95C16.86 9.75 16.54 9.75 16.35 9.95L14.15 12.15H14.14C13.95 12.05 13.73 12 13.5 12C12.67 12 12 12.67 12 13.5C12 14.33 12.67 15 13.5 15C14.33 15 15 14.33 15 13.5C15 13.27 14.95 13.05 14.85 12.86V12.85L17.05 10.65ZM13.5 5C10.91 5 8.58 6.17 7.02 8H8.42C9.75 6.76 11.54 6 13.5 6C17.64 6 21 9.36 21 13.5C21 17.64 17.64 21 13.5 21C11.54 21 9.75 20.24 8.42 19H7.02C8.58 20.83 10.91 22 13.5 22C18.19 22 22 18.19 22 13.5C22 8.81 18.19 5 13.5 5Z" fill="black"/>
</svg>
